<?xml version="1.0" encoding="utf-8"?>
<!-- Generator: Adobe Illustrator 26.0.1, SVG Export Plug-In . SVG Version: 6.00 Build 0)  -->
<svg version="1.1" id="Layer_1" xmlns="http://www.w3.org/2000/svg" xmlns:xlink="http://www.w3.org/1999/xlink" x="0px" y="0px"
	 viewBox="0 0 612 792" style="enable-background:new 0 0 612 792;" xml:space="preserve">
<style type="text/css">
	.st0{fill:#2E3192;}
</style>
<path class="st0" d="M435.42,483.49c-22.22,0.59-110.55,35.8-134.47,153.88c-0.53-9.61-14.83-109.43-132.77-153.53
	c0,0,75.48-76.6,48.21-120.82c-2.49-4.42-5.56-8.06-10.34-11.47c19.15,8.3,76.31,42.63,13.11,123.61c0,0,35.49,11.74,82.64,102.3
	c8.02-13.99,33.05-69.63,84.54-102.48c0,0-13.37-65.34-65.18-94.7l0.13,57.35c0,0-1.79,27.66,19.66,29.87
	c0,0-19.92,5.36-39.15,61.53c0,0-7.32-34.98-40.34-61.7c0,0,20.93-3.75,20.76-28.17l-0.33-190.85c0.93-8.51-21.45-20.04-29.21,2.98
	c0,0-6.84-25.32,31.59-26.51h67.4l0.33,1.31c-2.41-16.73,0.18-29.57,0.18-29.57c-37.2-0.13-63.17,0.71-73.79,1.13
	c-5.52,0.22-11,0.98-16.31,2.47c-59.18,16.59-25.97,91.06,13.34,109.42v48.68c-149.45-104.68-56.41-168.1-56.77-168.76
	c30.13-23.24,126.38-12.38,148.6-12.49c52.18,1.31,53.7-23,53.7-23c3.91,21.61-10.65,31.83-22.22,38.81
	c-21.78,13.15-22.96,30.59-23.74,36.25c-2.26,16.47,3.25,35.79,15.23,55.66c-18.13-10.94-28.1-25.61-33.45-39.83
	c-0.76-0.05-32.58-2.13-45.44,1.53c0,0,9.96,1.49,9.7,19.58v52.42l0.03,15l36.06,24.15C378.73,374.05,433.88,418.12,435.42,483.49z"
	/>
<path class="st0" d="M215.66,363.35c0.22,1.09,0.34,2.22,0.34,3.37c0,9.1-7.37,16.47-16.46,16.47c-9.1,0-16.47-7.37-16.47-16.47
	c0-9.09,7.37-16.46,16.47-16.46c3.49,0,6.74,1.09,9.4,2.95c-2.59-1.2-4.27-1.79-4.47-1.86
	C209.31,354.97,212.98,359.01,215.66,363.35z"/>
<path class="st0" d="M215.66,363.35c-2.68-4.34-6.35-8.38-11.19-12c0.2,0.07,1.88,0.66,4.47,1.86
	C212.33,355.57,214.79,359.17,215.66,363.35z"/>
<path class="st0" d="M202.52,350.26"/>
<path class="st0" d="M444.13,286.3c-1.81,16.07-8.73,30.04-21.92,39.4c-20.36,14.44-64.63,24.07-77.01-6.22
	c2.65,4.73,7.72,7.92,13.53,7.92c0.36,0,0.71-0.01,1.06-0.04c37.61,11.51,88.07-49.99,20.43-82.85v-19.4
	C380.22,225.11,450.56,229.24,444.13,286.3z"/>
<path class="st0" d="M344.3,317.06c0.28,0.83,0.57,1.64,0.9,2.42c-1.28-2.24-2-4.84-2-7.61c0-8.58,6.95-15.53,15.53-15.53
	c8.58,0,15.53,6.95,15.53,15.53c0,8.22-6.38,14.95-14.47,15.49C354.2,325.66,348.89,322.33,344.3,317.06z"/>
<path class="st0" d="M359.79,327.36c-0.35,0.03-0.7,0.04-1.06,0.04c-5.81,0-10.88-3.19-13.53-7.92c-0.33-0.78-0.62-1.59-0.9-2.42
	C348.89,322.33,354.2,325.66,359.79,327.36z"/>
<path class="st0" d="M388.72,474.98"/>
<path class="st0" d="M223.28,474.98"/>
<path class="st0" d="M432.64,483.49"/>
<path class="st0" d="M174.6,483.49"/>
</svg>
